<svg width="139" height="95" viewBox="0 0 139 95" fill="none" xmlns="http://www.w3.org/2000/svg">
<path d="M42.5033 63.3749L61.4664 80.6342V94.3375L43.9046 80.6342L42.5033 63.3749Z" fill="#ABD1E4"/>
<path d="M19.8972 65.2829L42.5033 63.3749L43.3441 72.3081L43.9046 80.6342L20.9247 82.5422L19.8972 65.2829Z" fill="#DBF6FD"/>
<path d="M61.373 80.4607L98.7386 81.1841V94.3375H61.373V80.4607Z" fill="#BCDDEE"/>
<path d="M119.663 29.2899L135.357 45.2482L139 66.844L115.179 78.1189L108.173 70.3999L98.7386 81.4146L61.1862 80.5473L42.5034 63.3748L19.8972 65.2829L11.1163 51.6662L15.0397 46.0288L6.25874 44.2075L0 31.5449L13.7319 23.479L38.2997 21.9178L56.8891 14.8927L84.2594 16.2804L98.7386 25.734L119.663 29.2899Z" fill="#EEFCFD"/>
<path d="M11.1163 51.6665L19.8972 65.2831L20.9247 82.5424L11.1163 64.3291V51.6665Z" fill="#ABD1E4"/>
<path d="M6.25874 44.2076L15.0397 46.029L11.1163 51.6664V60.3394H5.69825L6.25874 44.2076Z" fill="#DCF7FF"/>
<path d="M0 31.5452L6.25874 44.2078L5.69825 60.3395L0 47.33V31.5452Z" fill="#ABD1E4"/>
<path d="M98.7386 81.4146L108.173 70.3999L108.08 84.3634L98.7386 94.3374V81.4146Z" fill="#DBF6FD"/>
<path d="M108.173 70.3999L115.179 78.1189L115.086 91.8222L108.08 84.3634L108.173 70.3999Z" fill="#BCDDEE"/>
<path d="M115.179 78.1188L139 66.8439V79.8534L115.086 91.8221L115.179 78.1188Z" fill="#DBF6FD"/>
<rect width="20.47" height="8.64447" transform="matrix(0.995466 -0.0951147 0.0798534 0.996807 98.8662 20.5632)" fill="black"/>
<rect width="20.5867" height="8.60284" transform="matrix(0.959751 -0.280854 0.238282 0.971196 75.002 28.1205)" fill="black"/>
<rect width="20.8041" height="8.52405" transform="matrix(0.891101 -0.453804 0.392679 0.919675 51.1377 39.2264)" fill="black"/>
<rect width="21.0936" height="8.41674" transform="matrix(0.794357 -0.607451 0.539739 0.841833 30.6826 53.7682)" fill="black"/>
<rect width="21.4179" height="8.29302" transform="matrix(0.675318 -0.737526 0.675318 0.737526 13.6367 71.6447)" fill="black"/>
<path d="M13.6369 52.1251C8.91655 52.1251 3.40918 55.3104 3.40918 63.4189C3.40918 68.9206 11.2767 81.0832 13.6369 84.2685C15.7349 81.0832 23.8643 69.2103 23.8643 63.4186C23.8643 55.3104 18.3572 52.1251 13.6369 52.1251Z" fill="#2196F3"/>
<ellipse cx="13.6367" cy="63.2946" rx="6.81836" ry="7.44644" fill="white"/>
<path d="M122.731 0C118.01 0 112.503 3.18528 112.503 11.2938C112.503 16.7955 120.37 28.9581 122.731 32.1434C124.829 28.9581 132.958 17.0852 132.958 11.2935C132.958 3.18528 127.451 0 122.731 0Z" fill="#FF4444"/>
<ellipse cx="122.73" cy="11.1696" rx="6.81836" ry="7.44644" fill="white"/>
</svg>
